<?xml version="1.0" encoding="utf-8"?>
<!-- Generator: Adobe Illustrator 26.0.1, SVG Export Plug-In . SVG Version: 6.00 Build 0)  -->
<svg version="1.1" id="Layer_1" xmlns="http://www.w3.org/2000/svg" xmlns:xlink="http://www.w3.org/1999/xlink" x="0px" y="0px"
	 viewBox="0 0 452.88 256.25" style="enable-background:new 0 0 452.88 256.25;" xml:space="preserve">
<style type="text/css">
	.st0{fill:#FFFFFF;}
</style>
<g>
	<path class="st0" d="M359.96,31.01L146.91,244.07c-9.76,9.76-25.59,9.76-35.36,0l-18.72-18.72L305.89,12.28
		c9.76-9.76,25.59-9.76,35.36,0L359.96,31.01z"/>
	<path class="st0" d="M287.22,30.96L420.6,164.34l18.72-18.72c9.76-9.76,9.76-25.59,0-35.36L341.3,12.24
		c-9.76-9.76-25.59-9.76-35.36,0L287.22,30.96z"/>
	<path class="st0" d="M420.56,91.65L287.19,225.02l18.72,18.72c9.76,9.76,25.59,9.76,35.36,0l98.02-98.02
		c9.76-9.76,9.76-25.59,0-35.36L420.56,91.65z"/>
	<path class="st0" d="M278.91,144.46l80.88,80.88l-18.72,18.72c-9.76,9.76-25.59,9.76-35.36,0l-63.2-63.2
		c-3.91-3.91-3.91-10.24,0-14.14l22.26-22.26C268.67,140.55,275.01,140.55,278.91,144.46z"/>
	<path class="st0" d="M165.66,225.28L32.29,91.9l-18.72,18.72c-9.76,9.76-9.76,25.59,0,35.36L111.58,244
		c9.76,9.76,25.59,9.76,35.36,0L165.66,225.28z"/>
	<path class="st0" d="M32.32,164.59L165.7,31.22L146.97,12.5c-9.76-9.76-25.59-9.76-35.36,0L13.6,110.51
		c-9.76,9.76-9.76,25.59,0,35.36L32.32,164.59z"/>
	<path class="st0" d="M173.97,111.78L93.1,30.91l18.72-18.72c9.76-9.76,25.59-9.76,35.36,0l63.2,63.2c3.91,3.91,3.91,10.24,0,14.14
		l-22.26,22.26C184.21,115.69,177.88,115.69,173.97,111.78z"/>
</g>
</svg>
